<svg width="138" height="36" viewBox="0 0 138 36" fill="none" xmlns="http://www.w3.org/2000/svg">
<g clip-path="url(#clip0)">
<path d="M54.8761 0.0301514H49.6366C49.4801 0.0306272 49.3302 0.094126 49.2196 0.20678C49.109 0.319434 49.0467 0.472088 49.0462 0.631404V14.0243C49.0584 14.9567 48.8857 15.882 48.5382 16.7447C48.1907 17.6074 47.6758 18.3897 47.0242 19.0448C45.6368 20.4276 43.9985 21.1341 42.0946 21.1341C40.1906 21.1341 38.5523 20.4276 37.165 19.0448C35.8366 17.6318 35.1429 15.9633 35.1429 14.0243V0.631404C35.1425 0.472088 35.0801 0.319434 34.9695 0.20678C34.8589 0.094126 34.709 0.0306272 34.5526 0.0301514H29.313C29.1566 0.0306272 29.0067 0.094126 28.8961 0.20678C28.7855 0.319434 28.7231 0.472088 28.7227 0.631404V14.0243C28.7227 17.7821 30.051 20.9838 32.6486 23.6293C35.2463 26.2748 38.39 27.6276 42.0798 27.6276H42.1388C45.8287 27.6276 48.9724 26.2748 51.57 23.6293C54.1972 20.9838 55.496 17.7821 55.496 14.0243V0.631404C55.484 0.470843 55.414 0.320509 55.2995 0.209458C55.185 0.0984066 55.0342 0.034522 54.8761 0.0301514Z" fill="#40DF6B"/>
<path d="M24.4127 0.0302039H18.8927C18.7718 0.031662 18.654 0.069556 18.5542 0.139107C18.4544 0.208658 18.377 0.306752 18.3319 0.421018L12.93 15.6477C12.8886 15.7634 12.8133 15.8633 12.7143 15.9339C12.6153 16.0045 12.4974 16.0423 12.3765 16.0423C12.2556 16.0423 12.1377 16.0045 12.0387 15.9339C11.9397 15.8633 11.8644 15.7634 11.823 15.6477L6.37685 0.421018C6.33429 0.304968 6.25756 0.20514 6.15717 0.135186C6.05678 0.0652317 5.93763 0.0285665 5.816 0.0302039H1.27014C1.06691 0.0310324 0.866819 0.0813946 0.686605 0.177081C0.506391 0.272767 0.351285 0.410997 0.234253 0.580216C0.117221 0.749436 0.0416626 0.944728 0.0138943 1.14977C-0.0138741 1.35481 0.00695421 1.56364 0.0746381 1.75881L9.004 26.7709C9.0937 27.0197 9.25674 27.2341 9.47076 27.3848C9.68478 27.5354 9.93932 27.6151 10.1995 27.6127H14.5387C14.7977 27.6099 15.05 27.5283 15.2631 27.3783C15.4761 27.2283 15.6402 27.0167 15.7342 26.7709L24.9735 0.841895C25.0049 0.750292 25.0144 0.652392 25.0012 0.556306C24.9881 0.46022 24.9526 0.368715 24.8978 0.289373C24.843 0.210031 24.7704 0.145136 24.686 0.100065C24.6016 0.0549945 24.5079 0.031046 24.4127 0.0302039Z" fill="#40DF6B"/>
<path d="M67.8055 6.46345C69.6357 6.46345 70.6098 7.27514 70.7722 8.91356C70.7874 9.06216 70.8562 9.19973 70.9652 9.29968C71.0743 9.39963 71.2158 9.45486 71.3625 9.45468H76.484C76.5641 9.45479 76.6433 9.4383 76.717 9.40622C76.7906 9.37414 76.857 9.32714 76.9123 9.26809C76.9675 9.20903 77.0103 9.13915 77.0382 9.0627C77.0661 8.98625 77.0784 8.90482 77.0744 8.82337C76.9563 6.40333 76.0855 4.34404 74.462 2.70562C72.7352 0.916898 70.5163 0.0250399 67.8055 0.0300503C65.0898 0.0300503 62.9055 0.992055 61.2377 2.96116C59.7161 4.65872 58.892 6.88607 58.9352 9.18412C58.9352 11.1833 59.6584 12.972 61.0458 14.4902C62.625 16.1887 64.8242 17.2259 67.6137 17.5415C68.9715 17.7219 69.8571 18.0075 70.2999 18.4885C70.5803 18.714 70.6984 19.1048 70.6984 19.676V19.7662C70.6692 20.0075 70.5772 20.2365 70.4318 20.4294C70.2865 20.6224 70.0932 20.7722 69.8718 20.8635C69.4143 21.104 68.7797 21.2092 67.9679 21.2092C67.5405 21.2093 67.1179 21.1171 66.7281 20.9386C66.0787 20.653 65.6802 20.2472 65.5326 19.676C65.4972 19.5489 65.4216 19.4373 65.3175 19.3585C65.2134 19.2797 65.0867 19.2381 64.957 19.2401H59.806C59.7247 19.2403 59.6444 19.2575 59.5699 19.2907C59.4955 19.3238 59.4285 19.3722 59.3731 19.4328C59.3178 19.4934 59.2753 19.5649 59.2482 19.643C59.2211 19.721 59.21 19.8039 59.2156 19.8864C59.3632 22.066 60.2783 23.8697 61.9609 25.3728C63.6253 26.8334 65.7562 27.6246 67.9531 27.5975C70.4327 27.5975 72.5285 26.8309 74.3292 25.3728C76.115 23.8697 76.9858 21.9908 76.9858 19.706C76.9858 17.767 76.4988 16.1286 75.4804 14.7758C74.034 12.7766 71.643 11.6042 68.3369 11.2284C66.2558 10.9578 65.2227 10.2964 65.2227 9.16909C65.2079 7.36533 66.0787 6.46345 67.8055 6.46345Z" fill="#40DF6B"/>
<path d="M94.0909 0C90.3716 0 87.1934 1.35783 84.5564 4.07349C81.8997 6.74906 80.5566 9.99582 80.5566 13.8138C80.5566 17.6017 81.9145 20.8635 84.5564 23.5541C87.2131 26.2597 90.3716 27.5975 94.0909 27.5975C96.277 27.6215 98.4356 27.1003 100.378 26.0793C100.468 26.0303 100.569 26.0058 100.671 26.008C100.772 26.0103 100.872 26.0392 100.96 26.0922C101.047 26.1451 101.12 26.2201 101.171 26.31C101.221 26.4 101.248 26.5017 101.249 26.6054V30.3783C101.249 30.5587 101.279 35.549 101.279 35.549C101.278 35.6086 101.288 35.6677 101.31 35.7229C101.332 35.7781 101.365 35.8283 101.406 35.8704C101.447 35.9125 101.497 35.9456 101.551 35.9679C101.605 35.9902 101.663 36.0011 101.721 36H106.4C106.737 36 107.06 35.8638 107.298 35.6214C107.536 35.3789 107.669 35.0501 107.669 34.7073C107.669 34.7073 107.684 30.4685 107.684 30.3632V13.8288C107.684 10.0109 106.356 6.74906 103.714 4.08852C101.043 1.35282 97.8398 0 94.0909 0ZM99.1386 18.9395C98.4832 19.624 97.6974 20.1651 96.8294 20.5295C95.9615 20.8939 95.0296 21.0741 94.0909 21.0589C92.1574 21.0589 90.4896 20.3524 89.0728 18.9395C87.7149 17.4964 87.0212 15.7979 87.0212 13.8288C87.007 12.8756 87.1813 11.9292 87.5338 11.046C87.8862 10.1629 88.4096 9.36096 89.0728 8.6881C90.4896 7.27515 92.1574 6.56868 94.0909 6.56868H94.1647C96.0435 6.57716 97.842 7.34512 99.165 8.70372C100.488 10.0623 101.227 11.9004 101.22 13.8138C101.22 15.7979 100.526 17.4964 99.1386 18.9395Z" fill="#40DF6B"/>
<path d="M138 0.616267C137.999 0.456951 137.937 0.304297 137.826 0.191643C137.716 0.0789893 137.566 0.0154905 137.409 0.0150146H132.096C131.94 0.0154905 131.79 0.0789893 131.679 0.191643C131.569 0.304297 131.506 0.456951 131.506 0.616267V2.05927C129.41 0.706455 127.039 0.030046 124.392 0.030046C120.672 0.030046 117.494 1.38787 114.857 4.10353C112.201 6.77911 110.843 10.0108 110.843 13.8288C110.843 17.6167 112.201 20.8785 114.843 23.5691C117.499 26.2747 120.658 27.6125 124.377 27.6125C126.249 27.6302 128.103 27.2514 129.823 26.5002C130.016 26.4168 130.225 26.3834 130.433 26.4029C130.641 26.4224 130.841 26.4943 131.016 26.612C131.19 26.7297 131.332 26.8896 131.431 27.0774C131.529 27.2651 131.58 27.4748 131.58 27.6877V27.9282C131.58 28.2468 131.705 28.5521 131.926 28.7774C132.148 29.0027 132.447 29.1297 132.76 29.1307H136.745C137.058 29.1297 137.358 29.0027 137.579 28.7774C137.8 28.5521 137.925 28.2468 137.926 27.9282C137.926 27.9282 137.985 13.6033 137.985 13.5432V0.616267H138ZM129.439 18.9394C128.784 19.624 127.998 20.1651 127.13 20.5295C126.262 20.8939 125.33 21.0741 124.392 21.0589C122.458 21.0589 120.791 20.3524 119.374 18.9394C118.016 17.4964 117.322 15.7979 117.322 13.8288C117.308 12.8801 117.483 11.9383 117.835 11.06C118.188 10.1817 118.711 9.38513 119.374 8.71815C120.791 7.3052 122.458 6.59873 124.392 6.59873H124.436C126.263 6.59839 128.02 7.318 129.337 8.60686C130.655 9.89573 131.432 11.6539 131.506 13.5131V13.8438C131.506 15.7979 130.827 17.4964 129.439 18.9394Z" fill="#40DF6B"/>
</g>
<defs>
<clipPath id="clip0">
<rect width="138" height="36" fill="white"/>
</clipPath>
</defs>
</svg>
