<svg width="22" height="23" viewBox="0 0 22 23" fill="none" xmlns="http://www.w3.org/2000/svg">
<g opacity="0.5" filter="url(#filter0_d)">
<mask id="path-1-inside-1" fill="white">
<path fill-rule="evenodd" clip-rule="evenodd" d="M16.5007 6.5V1H22.001V6.5H16.5007ZM16.5007 9.25V14.75H22.001V9.25H16.5007ZM0 23V17.5H5.50026V23H0ZM8.2503 17.5V23H13.7506V17.5H8.2503ZM16.5007 17.5V23H22.001V17.5H16.5007ZM8.2503 14.75V9.25H13.7506V14.75H8.2503ZM0 9.25V14.75H5.50026V9.25H0ZM8.2503 1V6.5H13.7506V1H8.2503ZM0 6.5V1H5.50026V6.5H0Z"/>
</mask>
<path fill-rule="evenodd" clip-rule="evenodd" d="M16.5007 6.5V1H22.001V6.5H16.5007ZM16.5007 9.25V14.75H22.001V9.25H16.5007ZM0 23V17.5H5.50026V23H0ZM8.2503 17.5V23H13.7506V17.5H8.2503ZM16.5007 17.5V23H22.001V17.5H16.5007ZM8.2503 14.75V9.25H13.7506V14.75H8.2503ZM0 9.25V14.75H5.50026V9.25H0ZM8.2503 1V6.5H13.7506V1H8.2503ZM0 6.5V1H5.50026V6.5H0Z" fill="url(#paint0_linear)"/>
<path d="M16.5007 1V0.5H16.0007V1H16.5007ZM16.5007 6.5H16.0007V7H16.5007V6.5ZM22.001 1H22.501V0.5H22.001V1ZM22.001 6.5V7H22.501V6.5H22.001ZM16.5007 14.75H16.0007V15.25H16.5007V14.75ZM16.5007 9.25V8.75H16.0007V9.25H16.5007ZM22.001 14.75V15.25H22.501V14.75H22.001ZM22.001 9.25H22.501V8.75H22.001V9.25ZM0 17.5V17H-0.5V17.5H0ZM0 23H-0.5V23.5H0V23ZM5.50026 17.5H6.00026V17H5.50026V17.5ZM5.50026 23V23.5H6.00026V23H5.50026ZM8.2503 23H7.7503V23.5H8.2503V23ZM8.2503 17.5V17H7.7503V17.5H8.2503ZM13.7506 23V23.5H14.2506V23H13.7506ZM13.7506 17.5H14.2506V17H13.7506V17.5ZM16.5007 23H16.0007V23.5H16.5007V23ZM16.5007 17.5V17H16.0007V17.5H16.5007ZM22.001 23V23.5H22.501V23H22.001ZM22.001 17.5H22.501V17H22.001V17.5ZM8.2503 9.25V8.75H7.7503V9.25H8.2503ZM8.2503 14.75H7.7503V15.25H8.2503V14.75ZM13.7506 9.25H14.2506V8.75H13.7506V9.25ZM13.7506 14.75V15.25H14.2506V14.75H13.7506ZM0 14.75H-0.5V15.25H0V14.75ZM0 9.25V8.75H-0.5V9.25H0ZM5.50026 14.75V15.25H6.00026V14.75H5.50026ZM5.50026 9.25H6.00026V8.75H5.50026V9.25ZM8.2503 6.5H7.7503V7H8.2503V6.5ZM8.2503 1V0.5H7.7503V1H8.2503ZM13.7506 6.5V7H14.2506V6.5H13.7506ZM13.7506 1H14.2506V0.5H13.7506V1ZM0 1V0.5H-0.5V1H0ZM0 6.5H-0.5V7H0V6.5ZM5.50026 1H6.00026V0.5H5.50026V1ZM5.50026 6.5V7H6.00026V6.5H5.50026ZM16.0007 1V6.5H17.0007V1H16.0007ZM22.001 0.5H16.5007V1.5H22.001V0.5ZM22.501 6.5V1H21.501V6.5H22.501ZM16.5007 7H22.001V6H16.5007V7ZM17.0007 14.75V9.25H16.0007V14.75H17.0007ZM22.001 14.25H16.5007V15.25H22.001V14.25ZM21.501 9.25V14.75H22.501V9.25H21.501ZM16.5007 9.75H22.001V8.75H16.5007V9.75ZM-0.5 17.5V23H0.5V17.5H-0.5ZM5.50026 17H0V18H5.50026V17ZM6.00026 23V17.5H5.00026V23H6.00026ZM0 23.5H5.50026V22.5H0V23.5ZM8.7503 23V17.5H7.7503V23H8.7503ZM13.7506 22.5H8.2503V23.5H13.7506V22.5ZM13.2506 17.5V23H14.2506V17.5H13.2506ZM8.2503 18H13.7506V17H8.2503V18ZM17.0007 23V17.5H16.0007V23H17.0007ZM22.001 22.5H16.5007V23.5H22.001V22.5ZM21.501 17.5V23H22.501V17.5H21.501ZM16.5007 18H22.001V17H16.5007V18ZM7.7503 9.25V14.75H8.7503V9.25H7.7503ZM13.7506 8.75H8.2503V9.75H13.7506V8.75ZM14.2506 14.75V9.25H13.2506V14.75H14.2506ZM8.2503 15.25H13.7506V14.25H8.2503V15.25ZM0.5 14.75V9.25H-0.5V14.75H0.5ZM5.50026 14.25H0V15.25H5.50026V14.25ZM5.00026 9.25V14.75H6.00026V9.25H5.00026ZM0 9.75H5.50026V8.75H0V9.75ZM8.7503 6.5V1H7.7503V6.5H8.7503ZM13.7506 6H8.2503V7H13.7506V6ZM13.2506 1V6.5H14.2506V1H13.2506ZM8.2503 1.5H13.7506V0.5H8.2503V1.5ZM-0.5 1V6.5H0.5V1H-0.5ZM5.50026 0.5H0V1.5H5.50026V0.5ZM6.00026 6.5V1H5.00026V6.5H6.00026ZM0 7H5.50026V6H0V7Z" fill="#222222" mask="url(#path-1-inside-1)"/>
</g>
<defs>
<filter id="filter0_d" x="0" y="0.5" width="22.001" height="22.5" filterUnits="userSpaceOnUse" color-interpolation-filters="sRGB">
<feFlood flood-opacity="0" result="BackgroundImageFix"/>
<feColorMatrix in="SourceAlpha" type="matrix" values="0 0 0 0 0 0 0 0 0 0 0 0 0 0 0 0 0 0 127 0"/>
<feOffset dy="-0.5"/>
<feColorMatrix type="matrix" values="0 0 0 0 0 0 0 0 0 0 0 0 0 0 0 0 0 0 0.2 0"/>
<feBlend mode="normal" in2="BackgroundImageFix" result="effect1_dropShadow"/>
<feBlend mode="normal" in="SourceGraphic" in2="effect1_dropShadow" result="shape"/>
</filter>
<linearGradient id="paint0_linear" x1="0" y1="1" x2="0" y2="23" gradientUnits="userSpaceOnUse">
<stop stop-color="white" stop-opacity="0.9"/>
<stop offset="0.3" stop-color="white" stop-opacity="0.875"/>
<stop offset="1" stop-color="white" stop-opacity="0.85"/>
</linearGradient>
</defs>
</svg>
